<svg xmlns="http://www.w3.org/2000/svg" viewBox="0 0 260 90" role="img" aria-label="My Dentist">
  <defs>
    <linearGradient id="tooth" x1="0" y1="0" x2="1" y2="1">
      <stop offset="0" stop-color="#0B3A5B"/>
      <stop offset="1" stop-color="#12557f"/>
    </linearGradient>
  </defs>
  <!-- Tooth mark -->
  <g transform="translate(6,8)">
    <path fill="url(#tooth)" d="M36 4C27 4 24 10 17 10S6 4 6 14c0 9 3 16 6 28 2 8 3 22 7 22 5 0 4-16 9-16s4 16 9 16c4 0 5-14 7-22 3-12 6-19 6-28 0-10-6-4-11-4S45 4 36 4Z"/>
    <!-- cyan smile accent -->
    <path fill="none" stroke="#25C4E0" stroke-width="4.5" stroke-linecap="round" d="M20 30c5 7 27 7 32 0"/>
  </g>
  <!-- Wordmark -->
  <g font-family="'Poppins',sans-serif">
    <text x="72" y="46" font-size="30" font-weight="700" fill="#0B3A5B">My</text>
    <text x="123" y="46" font-size="30" font-weight="400" fill="#25C4E0">Dentist</text>
    <text x="73" y="66" font-size="10.5" letter-spacing="3" fill="#5B7386">QUERÉTARO</text>
  </g>
</svg>
